# xmcd
#
# Track frame offsets: 
#        150
#        23938
#        52598
#        70758
#        92323
#        111383
#        127395
#        144938
#
# Disc length: 2307 seconds
#
# Revision: 2
# Processed by: cddbd v1.5.2PL0 Copyright (c) Steve Scherf et al.
# Submitted via: ExactAudioCopy v0.99pb3
#
DISCID=66090108
DTITLE=Out of Control Rhythm and Blues Band - Cool and Unusual Punishment
DYEAR=1993
DGENRE=R&B
TTITLE0=Lady DJ
TTITLE1=Game of Love
TTITLE2=E. Norman John's Son
TTITLE3=Clean Break
TTITLE4=Jumpin' At Pauly's
TTITLE5=Baby Tell the Truth
TTITLE6=You're Gonna Need Me
TTITLE7=In and Out of Love Blues
EXTD=
EXTT0=
EXTT1=
EXTT2=
EXTT3=
EXTT4=
EXTT5=
EXTT6=
EXTT7=
PLAYORDER=
